{"title":"Hot Tub Time Machine 2 2015 720p HDCAM ENG x264 Pimp4003","uid":11789704,"size":1648721470,"categoryP":"video","categoryS":"movies","magnet":"?xt=urn:btih:43f00403187f0b6fa3f09f0deb40e0136d8a3154&amp;dn=Hot+Tub+Time+Machine+2+2015+720p+HDCAM+ENG+x264+Pimp4003&amp;tr=udp%3A%2F%2Ftracker.openbittorrent.com%3A80&amp;tr=udp%3A%2F%2Fopen.demonii.com%3A1337&amp;tr=udp%3A%2F%2Ftracker.coppersurfer.tk%3A6969&amp;tr=udp%3A%2F%2Fexodus.desync.com%3A6969","seeders":29,"leechers":0,"uploader":"shawnmurthy","files":1,"time":1427848999,"description":"SOURCE IS PIMP4003...VIDEO IS NOT BAD..DARK IN SOME SPOTS...MADE IT BRIGHTER AND BETTER...AUDIO IS LOW DID THE BEST I COULD ON THAT...MAKE SURE YOU USE VLC PLAYER AND MAKE THE AUDIO ON IT FULL LOUD AND YOU WILL BE ABLE TO HEAR IT CLEARLY....ENJOY...PIMP4003\n\nSCREENSHOTS GO HERE...[URL]http://pimp4003DOTnet/torrents.php?id=43f00403187f0b6fa3f09f0deb40e0136d8a3154\n\nI am looking for: Pre-Retail Supplier Unreleased DVD/BluRay/Web-Dls/R5/CAM/TS If you have something to offer, please contact ME: &lt;a class=&quot;__cf_email__&quot; href=&quot;/cdn-cgi/l/email-protection&quot; data-cfemail=&quot;95e5fcf8e5a1a5a5a6d5fde0e6fdf8f4fcf9bbf6faf8bb&quot;&gt;[email&amp;#160;protected]&lt;/a&gt;&lt;script cf-hash='f9e31' type=&quot;text/javascript&quot;&gt;\n/* &lt;![CDATA[ */!function(){try{var t=&quot;currentScript&quot;in document?document.currentScript:function(){for(var t=document.getElementsByTagName(&quot;script&quot;),e=t.length;e--;)if(t[e].getAttribute(&quot;cf-hash&quot;))return t[e]}();if(t&amp;&amp;t.previousSibling){var e,r,n,i,c=t.previousSibling,a=c.getAttribute(&quot;data-cfemail&quot;);if(a){for(e=&quot;&quot;,r=parseInt(a.substr(0,2),16),n=2;a.length-n;n+=2)i=parseInt(a.substr(n,2),16)^r,e+=String.fromCharCode(i);e=document.createTextNode(e),c.parentNode.replaceChild(e,c)}}}catch(u){}}();/* ]]&gt; */&lt;/script&gt; WE CAN WORK OUT A GREAT DEAL THAT WORKS OUT FOR EVERY PARTY. I ALSO NEED NEW CAMMERS...EMAIL ME\n &lt;a href=&quot;\nhttp://i.imgur.com/J3ny9bJ.jpg&quot; rel=&quot;nofollow&quot; target=&quot;_NEW&quot;&gt;\nhttp://i.imgur.com/J3ny9bJ.jpg&lt;/a&gt;\n &lt;a href=&quot;\nhttp://i.imgur.com/SpsuXOR.png&quot; rel=&quot;nofollow&quot; target=&quot;_NEW&quot;&gt;\nhttp://i.imgur.com/SpsuXOR.png&lt;/a&gt;\n\nPIMP THE ONE AND ONLY PIMPSTER.....PRESENTS\n\nfacebookDOTcom/OfficialPimp4003\n &lt;a href=&quot;\nhttp://i.imgur.com/392iwVt.jpg&quot; rel=&quot;nofollow&quot; target=&quot;_NEW&quot;&gt;\nhttp://i.imgur.com/392iwVt.jpg&lt;/a&gt;\n\nHot Tub Time Machine 2 2015 720p HDCAM ENG x264 Pimp4003\n &lt;a href=&quot;\nhttp://www.imdb.com/title/tt2637294/&quot; rel=&quot;nofollow&quot; target=&quot;_NEW&quot;&gt;\nhttp://www.imdb.com/title/tt2637294/&lt;/a&gt;\n\nWhen Lou finds himself in trouble, Nick and Jacob fire up the hot tub time machine in an attempt to get back to the past. But they inadvertently land in the future with Adam Jr. Now they have to alter the future in order to save the past - which is really the present.\n\nDirector: Steve Pink\n\nWriters: Josh Heald, Josh Heald (characters)\n\nStars: Rob Corddry, Craig Robinson, Clark Duke |See full cast and crew Â»\n\nVideo\n\nID : 1\n\nFormat : MPEG-4 Visual\n\nFormat profile : Simple@L3\n\nFormat settings, BVOP : No\n\nFormat settings, QPel : No\n\nFormat settings, GMC : No warppoints\n\nFormat settings, Matrix : Default (H.263)\n\nCodec ID : 20\n\nDuration : 1h 27mn\n\nBit rate : 2 394 Kbps\n\nWidth : 1 280 pixels\n\nHeight : 536 pixels\n\nDisplay aspect ratio : 2.40:1\n\nFrame rate mode : Variable\n\nFrame rate : 59.940 fps\n\nMinimum frame rate : 59.916 fps\n\nMaximum frame rate : 60.157 fps\n\nColor space : YUV\n\nChroma subsampling : 4:2:0\n\nBit depth : 8 bits\n\nScan type : Progressive\n\nCompression mode : Lossy\n\nBits/(Pixel*Frame) : 0.058\n\nStream size : 1.47 GiB (96%)\n\nWriting library : ZJMedia MPEG Encoder\n\nAudio\n\nID : 2\n\nFormat : AAC\n\nFormat/Info : Advanced Audio Codec\n\nFormat profile : LC\n\nCodec ID : 40\n\nDuration : 1h 28mn\n\nBit rate mode : Variable\n\nBit rate : 98.7 Kbps\n\nChannel(s) : 2 channels\n\nChannel positions : Front: L R\n\nSampling rate : 48.0 KHz\n\nCompression mode : Lossy\n\nStream size : 62.1 MiB (4%)","torrent":{"xt":"urn:btih:43f00403187f0b6fa3f09f0deb40e0136d8a3154","amp;dn":"Hot+Tub+Time+Machine+2+2015+720p+HDCAM+ENG+x264+Pimp4003","amp;tr":["udp%3A%2F%2Ftracker.openbittorrent.com%3A80","udp%3A%2F%2Fopen.demonii.com%3A1337","udp%3A%2F%2Ftracker.coppersurfer.tk%3A6969","udp%3A%2F%2Fexodus.desync.com%3A6969"],"infoHash":"43f00403187f0b6fa3f09f0deb40e0136d8a3154","infoHashBuffer":{"type":"Buffer","data":[67,240,4,3,24,127,11,111,163,240,159,13,235,64,224,19,109,138,49,84]},"announce":[],"urlList":[]}}